HIERARCHY
ROOT Hips
{
	OFFSET 0.000000 209.098373 0.000000
	CHANNELS 6 Xposition Yposition Zposition Xrotation Yrotation Zrotation 
	JOINT Spine
	{
		OFFSET -0.200200 19.804703 -3.890100
		CHANNELS 3 Xrotation Yrotation Zrotation
		JOINT Spine1
		{
			OFFSET -0.126500 17.102631 -1.185233
			CHANNELS 3 Xrotation Yrotation Zrotation
			JOINT Spine1_split
			{
				OFFSET -0.126500 17.102631 -1.185233
				CHANNELS 3 Xrotation Yrotation Zrotation
				JOINT Spine2
				{
					OFFSET -0.126500 17.102631 -1.185233
					CHANNELS 3 Xrotation Yrotation Zrotation
					JOINT Neck
					{
						OFFSET 0.573000 31.061890 3.761700
						CHANNELS 3 Xrotation Yrotation Zrotation
						JOINT Head
						{
							OFFSET 1.041900 22.230988 6.513500
							CHANNELS 3 Xrotation Yrotation Zrotation
							JOINT HeadTop_End
							{
								OFFSET 0.153900 38.312317 10.826400
								CHANNELS 3 Xrotation Yrotation Zrotation
								End Site
								{
									OFFSET 0.000000 0.000000 0.000000
								}
							}
							JOINT RightEye
							{
								OFFSET -6.116900 16.475891 16.457001
								CHANNELS 3 Xrotation Yrotation Zrotation
								End Site
								{
									OFFSET 0.000000 0.000000 0.000000
								}
							}
							JOINT LeftEye
							{
								OFFSET 6.085500 16.736298 16.760401
								CHANNELS 3 Xrotation Yrotation Zrotation
								End Site
								{
									OFFSET 0.000000 0.000000 0.000000
								}
							}
						}
					}
					JOINT LeftShoulder
					{
						OFFSET 6.477050 9.447403 1.339100
						CHANNELS 3 Xrotation Yrotation Zrotation
						JOINT LeftShoulder_split
						{
							OFFSET 6.477050 9.447403 1.339100
							CHANNELS 3 Xrotation Yrotation Zrotation
							JOINT LeftArm
							{
								OFFSET 26.260923 0.774078 -4.054200
								CHANNELS 3 Xrotation Yrotation Zrotation
								JOINT LeftForeArm
								{
									OFFSET 55.127678 0.000000 0.000000
									CHANNELS 3 Xrotation Yrotation Zrotation
									JOINT LeftHand
									{
										OFFSET 52.773346 0.000000 0.000000
										CHANNELS 3 Xrotation Yrotation Zrotation
										JOINT LeftHandMiddle1
										{
											OFFSET 27.744553 0.000000 -0.000001
											CHANNELS 3 Xrotation Yrotation Zrotation
											JOINT LeftHandMiddle2
											{
												OFFSET 6.931656 0.000000 0.000000
												CHANNELS 3 Xrotation Yrotation Zrotation
												JOINT LeftHandMiddle3
												{
													OFFSET 6.823593 0.000000 0.000000
													CHANNELS 3 Xrotation Yrotation Zrotation
													JOINT LeftHandMiddle4
													{
														OFFSET 7.392654 0.000000 0.000000
														CHANNELS 3 Xrotation Yrotation Zrotation
														End Site
														{
															OFFSET 0.000000 0.000000 0.000000
														}
													}
												}
											}
										}
										JOINT LeftHandThumb1
										{
											OFFSET 11.123123 -3.291504 6.128796
											CHANNELS 3 Xrotation Yrotation Zrotation
											JOINT LeftHandThumb2
											{
												OFFSET 8.694336 -5.019684 5.019678
												CHANNELS 3 Xrotation Yrotation Zrotation
												JOINT LeftHandThumb3
												{
													OFFSET 6.936920 -4.005035 4.005031
													CHANNELS 3 Xrotation Yrotation Zrotation
													JOINT LeftHandThumb4
													{
														OFFSET 4.488434 -2.591400 2.591393
														CHANNELS 3 Xrotation Yrotation Zrotation
														End Site
														{
															OFFSET 0.000000 0.000000 0.000000
														}
													}
												}
											}
										}
										JOINT LeftHandIndex1
										{
											OFFSET 28.490189 -0.454712 5.152027
											CHANNELS 3 Xrotation Yrotation Zrotation
											JOINT LeftHandIndex2
											{
												OFFSET 7.062866 0.000000 0.000000
												CHANNELS 3 Xrotation Yrotation Zrotation
												JOINT LeftHandIndex3
												{
													OFFSET 6.495270 0.000000 0.000000
													CHANNELS 3 Xrotation Yrotation Zrotation
													JOINT LeftHandIndex4
													{
														OFFSET 6.593353 0.000000 0.000000
														CHANNELS 3 Xrotation Yrotation Zrotation
														End Site
														{
															OFFSET 0.000000 0.000000 0.000000
														}
													}
												}
											}
										}
										JOINT LeftHandRing1
										{
											OFFSET 25.484116 0.079315 -4.241013
											CHANNELS 3 Xrotation Yrotation Zrotation
											JOINT LeftHandRing2
											{
												OFFSET 6.309830 0.000000 0.000000
												CHANNELS 3 Xrotation Yrotation Zrotation
												JOINT LeftHandRing3
												{
													OFFSET 6.359528 0.000000 0.000000
													CHANNELS 3 Xrotation Yrotation Zrotation
													JOINT LeftHandRing4
													{
														OFFSET 7.037842 0.000000 0.000000
														CHANNELS 3 Xrotation Yrotation Zrotation
														End Site
														{
															OFFSET 0.000000 0.000000 0.000000
														}
													}
												}
											}
										}
										JOINT LeftHandPinky1
										{
											OFFSET 21.905838 -0.440979 -8.780931
											CHANNELS 3 Xrotation Yrotation Zrotation
											JOINT LeftHandPinky2
											{
												OFFSET 6.536652 0.000000 0.000000
												CHANNELS 3 Xrotation Yrotation Zrotation
												JOINT LeftHandPinky3
												{
													OFFSET 4.149078 0.000000 0.000000
													CHANNELS 3 Xrotation Yrotation Zrotation
													JOINT LeftHandPinky4
													{
														OFFSET 5.563492 0.000000 0.000000
														CHANNELS 3 Xrotation Yrotation Zrotation
														End Site
														{
															OFFSET 0.000000 0.000000 0.000000
														}
													}
												}
											}
										}
									}
								}
							}
						}
					}
					JOINT RightShoulder
					{
						OFFSET -6.318650 9.607651 1.090450
						CHANNELS 3 Xrotation Yrotation Zrotation
						JOINT RightShoulder_split
						{
							OFFSET -6.318650 9.607651 1.090450
							CHANNELS 3 Xrotation Yrotation Zrotation
							JOINT RightArm
							{
								OFFSET -26.335392 0.460938 -5.423000
								CHANNELS 3 Xrotation Yrotation Zrotation
								JOINT RightForeArm
								{
									OFFSET -55.842682 0.000000 0.000000
									CHANNELS 3 Xrotation Yrotation Zrotation
									JOINT RightHand
									{
										OFFSET -50.313637 0.000000 0.000000
										CHANNELS 3 Xrotation Yrotation Zrotation
										JOINT RightHandMiddle1
										{
											OFFSET -26.065582 0.000000 0.000000
											CHANNELS 3 Xrotation Yrotation Zrotation
											JOINT RightHandMiddle2
											{
												OFFSET -6.159927 0.000000 0.000000
												CHANNELS 3 Xrotation Yrotation Zrotation
												JOINT RightHandMiddle3
												{
													OFFSET -7.279129 0.000000 0.000000
													CHANNELS 3 Xrotation Yrotation Zrotation
													JOINT RightHandMiddle4
													{
														OFFSET -7.459930 0.000000 0.000000
														CHANNELS 3 Xrotation Yrotation Zrotation
														End Site
														{
															OFFSET 0.000000 0.000000 0.000000
														}
													}
												}
											}
										}
										JOINT RightHandThumb1
										{
											OFFSET -9.501938 -3.930054 6.157043
											CHANNELS 3 Xrotation Yrotation Zrotation
											JOINT RightHandThumb2
											{
												OFFSET -8.016403 -4.628265 4.628269
												CHANNELS 3 Xrotation Yrotation Zrotation
												JOINT RightHandThumb3
												{
													OFFSET -6.641968 -3.834747 3.834738
													CHANNELS 3 Xrotation Yrotation Zrotation
													JOINT RightHandThumb4
													{
														OFFSET -4.755127 -2.745392 2.745377
														CHANNELS 3 Xrotation Yrotation Zrotation
														End Site
														{
															OFFSET 0.000000 0.000000 0.000000
														}
													}
												}
											}
										}
										JOINT RightHandIndex1
										{
											OFFSET -26.603027 -0.546387 5.106654
											CHANNELS 3 Xrotation Yrotation Zrotation
											JOINT RightHandIndex2
											{
												OFFSET -7.092133 0.000000 0.000000
												CHANNELS 3 Xrotation Yrotation Zrotation
												JOINT RightHandIndex3
												{
													OFFSET -7.414383 0.000000 0.000000
													CHANNELS 3 Xrotation Yrotation Zrotation
													JOINT RightHandIndex4
													{
														OFFSET -5.522461 0.000000 0.000000
														CHANNELS 3 Xrotation Yrotation Zrotation
														End Site
														{
															OFFSET 0.000000 0.000000 0.000000
														}
													}
												}
											}
										}
										JOINT RightHandRing1
										{
											OFFSET -24.087204 0.001373 -3.983909
											CHANNELS 3 Xrotation Yrotation Zrotation
											JOINT RightHandRing2
											{
												OFFSET -6.857483 0.000000 0.000000
												CHANNELS 3 Xrotation Yrotation Zrotation
												JOINT RightHandRing3
												{
													OFFSET -6.835510 0.000000 0.000000
													CHANNELS 3 Xrotation Yrotation Zrotation
													JOINT RightHandRing4
													{
														OFFSET -6.017181 0.000000 0.000000
														CHANNELS 3 Xrotation Yrotation Zrotation
														End Site
														{
															OFFSET 0.000000 0.000000 0.000000
														}
													}
												}
											}
										}
										JOINT RightHandPinky1
										{
											OFFSET -20.989380 -0.497772 -8.541121
											CHANNELS 3 Xrotation Yrotation Zrotation
											JOINT RightHandPinky2
											{
												OFFSET -5.939575 0.000000 0.000000
												CHANNELS 3 Xrotation Yrotation Zrotation
												JOINT RightHandPinky3
												{
													OFFSET -3.764755 0.000000 0.000000
													CHANNELS 3 Xrotation Yrotation Zrotation
													JOINT RightHandPinky4
													{
														OFFSET -6.370499 0.000000 0.000000
														CHANNELS 3 Xrotation Yrotation Zrotation
														End Site
														{
															OFFSET 0.000000 0.000000 0.000000
														}
													}
												}
											}
										}
									}
								}
							}
						}
					}
				}
			}
		}
	}
	JOINT LeftUpLeg
	{
		OFFSET 18.528200 -13.833405 2.662400
		CHANNELS 3 Xrotation Yrotation Zrotation
		JOINT LeftLeg
		{
			OFFSET -0.428627 -85.183052 -3.238300
			CHANNELS 3 Xrotation Yrotation Zrotation
			JOINT LeftFoot
			{
				OFFSET 0.428627 -85.416382 -5.126600
				CHANNELS 3 Xrotation Yrotation Zrotation
				JOINT LeftToeBase
				{
					OFFSET 2.692499 -21.394899 24.290701
					CHANNELS 3 Xrotation Yrotation Zrotation
					JOINT LeftToe_End
					{
						OFFSET -0.329500 0.250500 19.060301
						CHANNELS 3 Xrotation Yrotation Zrotation
						End Site
						{
							OFFSET 0.000000 0.000000 0.000000
						}
					}
				}
			}
		}
	}
	JOINT RightUpLeg
	{
		OFFSET -18.436300 -14.416702 0.160500
		CHANNELS 3 Xrotation Yrotation Zrotation
		JOINT RightLeg
		{
			OFFSET 0.571878 -84.751007 -3.366100
			CHANNELS 3 Xrotation Yrotation Zrotation
			JOINT RightFoot
			{
				OFFSET -0.571878 -85.244911 -5.426400
				CHANNELS 3 Xrotation Yrotation Zrotation
				JOINT RightToeBase
				{
					OFFSET -3.153700 -21.491106 24.818199
					CHANNELS 3 Xrotation Yrotation Zrotation
					JOINT RightToe_End
					{
						OFFSET -2.731201 0.224900 19.510799
						CHANNELS 3 Xrotation Yrotation Zrotation
						End Site
						{
							OFFSET 0.000000 0.000000 0.000000
						}
					}
				}
			}
		}
	}
}
MOTION
Frames: 4
Frame Time: 0.016667
2.826495 242.851562 99.884506 25.012195 -3.281168 1.830239 10.434231 1.704050 -0.970053 10.011051 4.048317 -1.054274 0.000000 0.000000 0.000000 10.016002 4.015133 -1.441926 -14.476787 -1.202599 1.755666 -12.662272 -2.945692 2.510885 -0.000002 0.000000 0.000000 -0.000002 0.000000 0.000000 -0.000002 0.000000 0.000000 3.039271 -16.789643 10.873189 0.000000 0.000000 0.000000 -79.238514 -62.993831 -44.520208 0.000000 -26.496604 -0.000003 18.973996 5.885063 32.933973 0.688386 4.991350 -25.988245 0.461933 2.282021 -22.883888 0.137825 1.264584 -12.439608 0.000000 0.000000 0.000001 -2.875530 3.737117 9.044249 13.318731 31.668859 1.284454 -15.850689 -9.873963 6.081685 0.000002 0.000002 -0.000004 0.710977 5.026973 -25.010042 0.435156 2.217565 -22.201834 0.137933 1.265047 -12.444268 -0.000002 -0.000000 0.000001 -0.891898 2.312754 -30.406431 0.640804 2.666036 -27.025887 0.137611 1.263621 -12.430150 0.000002 -0.000001 -0.000002 -3.212109 -1.291944 -31.539150 0.695894 2.771250 -28.187332 0.137508 1.263169 -12.425447 0.000001 -0.000000 0.000002 3.079310 22.795847 -5.646159 0.000000 0.000000 0.000000 -62.674690 56.758100 18.396553 -0.000004 9.690831 -0.000000 31.373323 1.064635 -35.732114 1.365675 -5.884360 28.486689 0.476222 -2.053369 26.111776 0.099553 -0.958768 11.854982 -0.000001 0.000001 0.000005 -6.843754 -4.630920 -19.349755 13.019396 -21.214576 5.113870 -15.977237 7.336481 -17.815001 -0.000003 0.000001 -0.000002 1.176396 -5.948202 21.620465 0.332522 -1.729822 21.760544 0.099539 -0.958765 11.854709 0.000001 0.000000 0.000001 -0.531637 -2.756772 32.861017 0.637634 -2.354065 30.307670 0.099539 -0.958733 11.854529 0.000000 0.000000 0.000000 -1.879873 -1.568768 38.713744 0.902050 -2.756653 36.232818 0.099545 -0.958777 11.855204 -0.000000 -0.000000 0.000003 -89.458170 1.367565 3.352393 91.989008 3.382054 -1.274363 -24.108433 -0.675221 2.681105 1.324668 0.000002 0.000001 -0.000000 0.000000 0.000000 -91.873728 -6.190615 -7.460342 87.363099 5.643109 2.222974 -20.662446 2.559786 -11.080525 2.985100 0.000000 0.000001 -0.000000 -0.000000 -0.000000 
3.045273 242.901352 99.919022 24.980884 -3.246100 1.858446 10.410546 1.678414 -0.988571 9.982797 4.041758 -1.060538 0.000000 0.000000 0.000000 9.987174 4.010811 -1.450006 -14.468069 -1.201620 1.762122 -12.685430 -2.929894 2.475187 -0.000001 -0.000000 -0.000000 -0.000001 -0.000000 -0.000000 -0.000001 -0.000000 -0.000000 3.030647 -16.710200 10.923084 0.000000 0.000000 0.000000 -79.498764 -63.010360 -44.925931 -0.000001 -26.658461 0.000003 19.055104 5.949984 32.950301 0.683021 4.980683 -25.871356 0.457299 2.271034 -22.767266 0.135271 1.252909 -12.323156 0.000000 0.000000 0.000000 -2.875531 3.737115 9.044252 13.298697 31.552523 1.285435 -15.880429 -9.982578 6.055688 0.000000 -0.000001 -0.000005 0.648080 4.889881 -24.902624 0.430572 2.206290 -22.082990 0.135374 1.253391 -12.327798 -0.000000 -0.000000 0.000001 -0.838158 2.390666 -30.281825 0.635358 2.655341 -26.908565 0.135061 1.251982 -12.313680 0.000000 -0.000001 0.000004 -3.111189 -1.134864 -31.403752 0.690203 2.760616 -28.069523 0.134958 1.251496 -12.308962 -0.000001 -0.000000 0.000002 3.068827 22.751003 -5.621543 0.000000 0.000000 0.000000 -62.972404 56.873022 18.697330 -0.000002 9.691660 -0.000001 31.617960 1.008943 -35.876791 1.358544 -5.877984 28.369360 0.472038 -2.044824 25.994891 0.097609 -0.949479 11.738296 0.000001 0.000000 -0.000003 -6.843754 -4.630920 -19.349759 12.989226 -21.101340 5.109592 -15.984335 7.449750 -17.793946 0.000000 -0.000001 -0.000001 1.118895 -5.804508 21.510463 0.328528 -1.719806 21.627746 0.097600 -0.949425 11.738025 -0.000000 -0.000000 -0.000002 -0.464709 -2.851537 32.737701 0.632829 -2.345824 30.190430 0.097601 -0.949426 11.737858 0.000000 0.000000 0.000002 -1.766409 -1.707597 38.586891 0.896406 -2.748930 36.115441 0.097606 -0.949505 11.738524 0.000000 0.000000 -0.000000 -89.355417 1.511521 3.298330 91.908658 3.425602 -1.314378 -24.138153 -0.719975 2.849040 1.330061 0.000001 0.000002 0.000000 -0.000000 -0.000000 -91.804873 -6.091957 -7.538985 87.301675 5.626189 2.206165 -20.619540 2.550117 -11.055484 2.893902 0.000000 0.000001 -0.000000 0.000000 0.000000 
3.278702 242.966827 99.917061 24.939949 -3.185140 1.898144 10.384323 1.657031 -0.997149 9.949695 4.033794 -1.056660 0.000000 0.000000 0.000000 9.954036 4.003461 -1.445985 -14.433633 -1.184074 1.712813 -12.751226 -2.932849 2.393162 0.000001 -0.000000 0.000000 0.000001 -0.000000 0.000000 0.000001 -0.000000 0.000000 3.023469 -16.712703 10.858618 0.000000 0.000000 0.000000 -79.624269 -63.047694 -45.242999 0.000006 -26.829092 0.000007 19.245204 5.935016 32.980531 0.677334 4.969327 -25.746634 0.452387 2.259256 -22.642863 0.132566 1.240467 -12.198850 0.000001 0.000001 -0.000000 -2.875530 3.737119 9.044250 13.277351 31.428453 1.286199 -15.912213 -10.098529 6.027522 0.000000 0.000001 -0.000001 0.581523 4.743325 -24.788223 0.425698 2.194278 -21.956166 0.132672 1.240940 -12.203522 -0.000000 -0.000000 -0.000001 -0.781230 2.473999 -30.148933 0.629574 2.643921 -26.783388 0.132355 1.239543 -12.189404 0.000001 -0.000000 -0.000000 -3.004326 -0.966833 -31.259477 0.684161 2.749301 -27.943813 0.132255 1.239070 -12.184681 -0.000001 0.000001 -0.000002 3.064292 22.675128 -5.649675 0.000000 0.000000 0.000000 -63.362886 56.936286 19.164734 -0.000003 9.700247 -0.000001 31.793431 0.990439 -36.074426 1.351128 -5.871491 28.244147 0.467600 -2.035712 25.870165 0.095551 -0.939536 11.613811 0.000001 0.000001 -0.000003 -6.843754 -4.630921 -19.349748 12.957036 -20.980492 5.105375 -15.992140 7.570659 -17.771228 -0.000001 -0.000002 0.000002 1.058156 -5.650919 21.393281 0.324284 -1.709093 21.486054 0.095551 -0.939509 11.613541 0.000000 -0.000000 0.000001 -0.393769 -2.952931 32.606213 0.627719 -2.337038 30.065349 0.095547 -0.939506 11.613366 0.000000 0.000000 0.000002 -1.646013 -1.856239 38.451755 0.890407 -2.740704 35.990193 0.095554 -0.939571 11.614025 0.000001 0.000000 -0.000001 -89.237186 1.699641 3.223987 91.788570 3.518689 -1.364841 -24.140703 -0.786784 3.103400 1.325849 0.000001 -0.000000 0.000000 0.000000 0.000000 -91.727310 -5.964360 -7.628205 87.218784 5.598382 2.185164 -20.525944 2.531672 -11.013723 2.779306 -0.000002 -0.000003 0.000000 -0.000001 -0.000000 
3.532410 243.078094 99.873177 24.884456 -3.109117 1.942494 10.364442 1.637064 -0.995633 9.921156 4.024088 -1.045117 0.000000 0.000000 0.000000 9.925880 3.993268 -1.434011 -14.390555 -1.159160 1.641734 -12.826611 -2.937096 2.285580 -0.000002 0.000000 0.000000 -0.000002 0.000000 0.000000 -0.000002 0.000000 0.000000 3.016600 -16.747450 10.747574 0.000000 0.000000 0.000000 -79.671377 -63.076257 -45.529932 0.000009 -27.019914 0.000003 19.467479 5.885731 33.021444 0.671301 4.957188 -25.614464 0.447194 2.246803 -22.510999 0.129729 1.227298 -12.067144 -0.000000 0.000001 0.000003 -2.875530 3.737118 9.044250 13.254721 31.297033 1.286671 -15.945997 -10.221444 5.997242 0.000001 -0.000001 0.000001 0.511606 4.587703 -24.667203 0.420567 2.181505 -21.821761 0.129830 1.227748 -12.071795 -0.000001 0.000001 0.000003 -0.721339 2.562599 -30.008136 0.623475 2.631804 -26.650717 0.129520 1.226343 -12.057689 0.000001 -0.000001 -0.000001 -2.891957 -0.788207 -31.106836 0.677784 2.737257 -27.810567 0.129429 1.225871 -12.052946 0.000001 -0.000001 -0.000001 3.057335 22.583609 -5.675942 0.000000 0.000000 0.000000 -63.793632 56.983845 19.721463 -0.000005 9.729353 0.000004 31.935328 1.000703 -36.286978 1.343424 -5.864869 28.111442 0.462914 -2.026009 25.737988 0.093402 -0.929005 11.481870 0.000001 0.000000 0.000000 -6.843755 -4.630922 -19.349750 12.923026 -20.852397 5.101302 -16.000565 7.698819 -17.746826 -0.000001 0.000001 0.000000 0.994504 -5.487924 21.269310 0.319817 -1.697664 21.335884 0.093397 -0.928984 11.481595 0.000000 0.000001 0.000002 -0.319102 -3.060777 32.466963 0.622323 -2.327682 29.932771 0.093388 -0.928982 11.481421 -0.000001 0.000000 -0.000004 -1.519173 -2.014372 38.308793 0.884078 -2.732004 35.857455 0.093415 -0.929012 11.482088 -0.000000 0.000000 0.000001 -89.082674 1.910787 3.123647 91.607809 3.646455 -1.419280 -24.122311 -0.865519 3.405371 1.332189 0.000002 0.000001 -0.000000 0.000000 -0.000000 -91.617979 -5.811529 -7.713959 87.084475 5.552761 2.160364 -20.389228 2.505544 -10.956750 2.652325 0.000001 0.000001 -0.000000 -0.000001 -0.000000 
